# xmcd CD database file
#
# Track frame offsets:
#	150
#	12445
#	22955
#	36670
#	49918
#	62108
#	74873
#	86133
#	100185
#	112898
#	127565
#	140980
#	153043
#	165508
#	176270
#	189470
#	202470
#	213645
#	225413
#	237430
#
# Disc length: 3306 seconds
#
# Revision: 0
# Processed by: cddbd v1.5.2PL0 Copyright (c) Steve Scherf et al.
# Submitted via: CDex 1.70beta2
#
DISCID=1f0ce814
DTITLE=T-Bone Walker - Best
DYEAR=1900
DGENRE=Blues
TTITLE0=T-Bone Jumps Again
TTITLE1=The Sun Wernt Down
TTITLE2=Call It Stormy Mondey
TTITLE3=I Got The Bluse
TTITLE4=Railroad Station Bluse
TTITLE5=Hypin`Woman Bluse
TTITLE6=The Hustle
TTITLE7=I`m Still in Love with You
TTITLE8=Bluse is a Woman
TTITLE9=Born to be Good
TTITLE10=T-Bone Shuffle
TTITLE11=Baby You Broke My Heart
TTITLE12=Bye Bye Baby
TTITLE13=I`m about to Lose My Mind
TTITLE14=First Love Blues
TTITLE15=I Wish You were Mine
TTITLE16=Travelin` Blues
TTITLE17=Evil Hearted Woman
TTITLE18=Bobby Sox Blues
TTITLE19=News for My Baby
EXTD=
EXTT0=
EXTT1=
EXTT2=
EXTT3=
EXTT4=
EXTT5=
EXTT6=
EXTT7=
EXTT8=
EXTT9=
EXTT10=
EXTT11=
EXTT12=
EXTT13=
EXTT14=
EXTT15=
EXTT16=
EXTT17=
EXTT18=
EXTT19=
PLAYORDER=
